HIERARCHY
ROOT hip
{
	OFFSET 0.000000 0.000000 0.000000
	CHANNELS 6 Xposition Yposition Zposition Xrotation Zrotation Yrotation 
	JOINT abdomen
	{
		OFFSET 0.000000 3.422050 0.000000
		CHANNELS 3 Xrotation Zrotation Yrotation 
		JOINT chest
		{
			OFFSET 0.000000 8.486693 -0.684411
			CHANNELS 3 Xrotation Zrotation Yrotation 
			JOINT neck
			{
				OFFSET 0.000000 10.266162 -0.273764
				CHANNELS 3 Xrotation Zrotation Yrotation 
				JOINT head
				{
					OFFSET 0.000000 3.148285 0.000000
					CHANNELS 3 Xrotation Zrotation Yrotation 
					End Site
					{
						OFFSET 0.000000 3.148289 0.000000
					}
				}
			}
			JOINT lCollar
			{
				OFFSET 3.422053 6.707223 -0.821293
				CHANNELS 3 Yrotation Zrotation Xrotation 
				JOINT lShldr
				{
					OFFSET 3.285171 0.000000 0.000000
					CHANNELS 3 Zrotation Yrotation Xrotation 
					JOINT lForeArm
					{
						OFFSET 10.129278 0.000000 0.000000
						CHANNELS 3 Yrotation Zrotation Xrotation 
						JOINT lHand
						{
							OFFSET 8.486692 0.000000 0.000000
							CHANNELS 3 Zrotation Yrotation Xrotation 
							End Site
							{
								OFFSET 4.106464 0.000000 0.000000
							}
						}
					}
				}
			}
			JOINT rCollar
			{
				OFFSET -3.558935 6.707223 -0.821293
				CHANNELS 3 Yrotation Zrotation Xrotation 
				JOINT rShldr
				{
					OFFSET -3.148289 0.000000 0.000000
					CHANNELS 3 Zrotation Yrotation Xrotation 
					JOINT rForeArm
					{
						OFFSET -10.266159 0.000000 0.000000
						CHANNELS 3 Yrotation Zrotation Xrotation 
						JOINT rHand
						{
							OFFSET -8.349810 0.000000 0.000000
							CHANNELS 3 Zrotation Yrotation Xrotation 
							End Site
							{
								OFFSET -4.106464 0.000000 0.000000
							}
						}
					}
				}
			}
		}
	}
	JOINT lThigh
	{
		OFFSET 5.338403 -1.642589 1.368821
		CHANNELS 3 Xrotation Zrotation Yrotation 
		JOINT lShin
		{
			OFFSET -2.053232 -20.121670 0.000000
			CHANNELS 3 Xrotation Zrotation Yrotation 
			JOINT lFoot
			{
				OFFSET 0.000000 -19.300380 -1.231939
				CHANNELS 3 Xrotation Yrotation Zrotation 
				End Site
				{
					OFFSET 0.000000 -2.463878 4.653993
				}
			}
		}
	}
	JOINT rThigh
	{
		OFFSET -5.338403 -1.642589 1.368821
		CHANNELS 3 Xrotation Zrotation Yrotation 
		JOINT rShin
		{
			OFFSET 2.053232 -20.121670 0.000000
			CHANNELS 3 Xrotation Zrotation Yrotation 
			JOINT rFoot
			{
				OFFSET 0.000000 -19.300380 -1.231939
				CHANNELS 3 Xrotation Yrotation Zrotation 
				End Site
				{
					OFFSET 0.000000 -2.463878 4.653993
				}
			}
		}
	}
}
MOTION
Frames: 16
Frame Time: 0.049989
0.000000 43.528500 0.000000 0.000000 0.000000 0.000000 0.000000 0.000000 0.000000 0.000000 0.000000 0.000000 0.000000 0.000000 0.000000 0.000000 0.000000 0.000000 0.000000 0.000000 0.000000 0.000000 0.000000 0.000000 0.000000 0.000000 0.000000 0.000000 0.000000 0.000000 0.000000 0.000000 0.000000 0.000000 0.000000 0.000000 0.000000 0.000000 0.000000 0.000000 0.000000 0.000000 0.000000 0.000000 0.000000 0.000000 0.000000 0.000000 0.000000 0.000000 0.000000 0.000000 0.000000 0.000000 0.000000 0.000000 0.000000 0.000000 0.000000 0.000000 
-18.001394 9.997749 6.995714 61.006001 0.000000 -180.000000 -9.762968 -2.212859 -0.490275 20.043564 -1.297201 0.859301 15.996989 0.000000 0.000000 10.999558 0.000000 0.000000 -19.587669 -17.556849 18.110397 -48.569275 42.282055 -9.680541 -78.608582 5.551011 -1.079043 -16.255636 -5.194238 0.114653 19.584419 17.552828 18.111410 48.566380 -42.285744 -9.681091 78.604218 -5.553678 -1.077038 16.252048 5.190772 0.113998 -14.187243 45.305820 68.158005 71.442978 47.823700 -58.058891 22.830109 38.219013 -11.851428 -14.028232 -46.387024 -66.947060 70.190430 -46.435692 56.053795 23.404701 -34.377369 11.498452 
-18.001394 9.997749 6.995714 60.996788 0.000000 -180.000000 -10.224200 -2.212849 -0.490250 21.271278 -1.297153 0.859337 14.953832 0.000000 0.000000 10.123679 0.000000 0.000000 -20.193705 -17.292816 17.821327 -48.868698 42.373264 -9.851739 -78.608582 5.551011 -1.079043 -15.775210 -5.466903 -0.263301 20.213825 17.210190 17.840172 48.933880 -42.405220 -9.891554 78.604225 -5.553678 -1.077038 15.751642 5.461122 -0.269847 -14.818704 44.463531 65.646324 71.848915 47.234516 -55.778603 22.857115 37.248299 -12.779370 -14.656075 -45.530392 -64.498001 70.516968 -45.920540 54.046795 23.450083 -33.620399 12.490394 
-18.001394 9.997749 6.995714 60.996773 0.000000 -180.000000 -10.685514 -2.212840 -0.490226 22.500546 -1.297105 0.859374 13.906984 0.000000 0.000000 9.246079 0.000000 0.000000 -20.797688 -17.025795 17.535505 -49.168926 42.463802 -10.023836 -78.608582 5.551011 -1.079043 -15.292596 -5.736491 -0.643847 20.840633 16.864599 17.573278 49.302685 -42.523678 -10.103470 78.604218 -5.553678 -1.077038 15.249014 5.728215 -0.656369 -15.391983 43.598793 63.172665 72.217224 46.632736 -53.521366 22.864269 36.275909 -13.696432 -15.224712 -44.652397 -62.089191 70.815460 -45.396297 52.056759 23.479492 -32.861938 13.474311 
-18.001394 9.997749 6.995714 60.996773 0.000000 -180.000000 -11.146893 -2.212829 -0.490201 23.731094 -1.297058 0.859412 12.856593 0.000000 0.000000 8.366856 0.000000 0.000000 -21.399578 -16.755836 17.252966 -49.469978 42.553677 -10.196831 -78.608574 5.551010 -1.079043 -14.807817 -6.002945 -1.026955 21.464828 16.516127 17.310741 49.672810 -42.641144 -10.316830 78.604218 -5.553678 -1.077038 14.744193 5.991992 -1.045532 -15.907567 42.713985 60.737274 72.547974 46.019688 -51.287899 22.852234 35.302357 -14.603292 -15.734929 -43.755341 -59.720451 71.085922 -44.863865 50.084217 23.493279 -32.102375 14.450517 
-18.001394 9.997749 6.995714 60.996788 0.000000 -180.000000 -11.608328 -2.212818 -0.490177 24.962635 -1.297011 0.859452 11.802821 0.000000 0.000000 7.486110 0.000000 0.000000 -21.999357 -16.482996 16.973738 -49.771835 42.642883 -10.370719 -78.608582 5.551010 -1.079043 -14.320910 -6.266218 -1.412593 22.086395 16.164848 17.052576 50.044235 -42.757591 -10.531631 78.604218 -5.553678 -1.077038 14.237216 6.252403 -1.437300 -16.366224 41.811569 58.340199 72.841476 45.396790 -49.078880 22.821659 34.328163 -15.500602 -16.187744 -42.841583 -57.391479 71.328583 -44.324223 48.129692 23.491796 -31.342102 15.419325 
-18.001394 9.997749 6.995714 60.996773 0.000000 -180.000000 -12.069795 -2.212807 -0.490152 26.194895 -1.296966 0.859492 10.745830 0.000000 0.000000 6.603938 0.000000 0.000000 -22.596996 -16.207333 16.697845 -50.074501 42.731415 -10.545496 -78.608582 5.551011 -1.079043 -13.831904 -6.526257 -1.800729 22.705330 15.810844 16.798792 50.416962 -42.873016 -10.747868 78.604218 -5.553678 -1.077038 13.728121 6.509393 -1.831636 -16.768955 40.893997 55.981266 73.098190 44.765450 -46.894817 22.773119 33.353798 -16.388962 -16.584435 -41.913540 -55.101833 71.543648 -43.778275 46.193569 23.475370 -30.581512 16.381021 
-18.001394 9.997749 6.995714 60.996780 0.000000 -180.000000 -12.531289 -2.212797 -0.490128 27.427570 -1.296921 0.859533 9.685783 0.000000 0.000000 5.720444 0.000000 0.000000 -23.192484 -15.928906 16.425325 -50.377972 42.819275 -10.721165 -78.608589 5.551011 -1.079044 -13.340834 -6.783013 -2.191327 23.321630 15.454193 16.549406 50.790997 -42.987411 -10.965536 78.604218 -5.553678 -1.077038 13.216941 6.762908 -2.228499 -17.116968 39.963703 53.660172 73.318565 44.127007 -44.736111 22.707203 32.379784 -17.268953 -16.926403 -40.973522 -52.850880 71.731491 -43.227005 44.276268 23.444349 -29.821007 17.335899 
-18.001394 9.997749 6.995714 60.996773 0.000000 -180.000000 -12.992790 -2.212785 -0.490103 28.660402 -1.296878 0.859576 8.622853 0.000000 0.000000 4.835730 0.000000 0.000000 -23.785776 -15.647764 16.156183 -50.682240 42.906445 -10.897711 -78.608589 5.551011 -1.079044 -12.847729 -7.036434 -2.584350 23.935287 15.094968 16.304422 51.166313 -43.100758 -11.184628 78.604225 -5.553679 -1.077038 12.703713 7.012896 -2.627849 -17.411684 39.023151 51.376495 73.503372 43.482918 -42.603138 22.624447 31.406593 -18.141121 -17.215219 -40.023869 -50.637905 71.892494 -42.671356 42.378082 23.399061 -29.060963 18.284237 
-18.001394 9.997749 6.995714 60.996773 0.000000 -180.000000 -13.454281 -2.212774 -0.490079 29.893087 -1.296835 0.859619 7.557214 0.000000 0.000000 3.949901 0.000000 0.000000 -24.376858 -15.363966 15.890449 -50.987301 42.992928 -11.075141 -78.608582 5.551011 -1.079043 -12.352627 -7.286474 -2.979763 24.546299 14.733253 16.063850 51.542931 -43.213062 -11.405142 78.604210 -5.553678 -1.077038 12.188483 7.259310 -3.029645 -17.654619 38.074726 49.129704 73.653389 42.834560 -40.496178 22.525379 30.434719 -19.005981 -17.452574 -39.066879 -48.462181 72.027145 -42.112274 40.499290 23.339836 -28.301771 19.226297 
-18.001394 9.997749 6.995714 60.996788 0.000000 -180.000000 -13.915752 -2.212763 -0.490055 31.125340 -1.296793 0.859663 6.489033 0.000000 0.000000 3.063056 0.000000 0.000000 -24.965727 -15.077581 15.628151 -51.293152 43.078712 -11.253442 -78.608574 5.551011 -1.079043 -11.855564 -7.533083 -3.377525 25.154667 14.369125 15.827695 51.920799 -43.324287 -11.627057 78.604218 -5.553678 -1.077038 11.671286 7.502095 -3.433839 -17.847450 37.120796 46.919212 73.769463 42.183292 -38.415413 22.410484 29.464624 -19.864010 -17.640245 -38.104767 -46.322838 72.135971 -41.550690 38.640141 23.266975 -27.543783 20.162327 
-18.001394 9.997749 6.995714 60.996773 0.000000 -180.000000 -14.377183 -2.212750 -0.490031 32.356880 -1.296753 0.859708 5.418493 0.000000 0.000000 2.175304 0.000000 0.000000 -25.552343 -14.788654 15.369301 -51.599781 43.163799 -11.432614 -78.608582 5.551011 -1.079043 -11.356574 -7.776215 -3.777596 25.760389 14.002664 15.595959 52.299957 -43.434456 -11.850386 78.604218 -5.553678 -1.077038 11.152174 7.741210 -3.840390 -17.991945 36.163651 44.744354 73.852608 41.530479 -36.361012 22.280235 28.496780 -20.715668 -17.780106 -37.139767 -44.219070 72.219589 -40.987545 36.800800 23.180799 -26.787390 21.092571 
-18.001394 9.997749 6.995714 60.996773 0.000000 -180.000000 -14.838564 -2.212739 -0.490007 33.587433 -1.296713 0.859754 4.345772 0.000000 0.000000 1.286749 0.000000 0.000000 -26.136703 -14.497254 15.113919 -51.907188 43.248173 -11.612649 -78.608582 5.551011 -1.079043 -10.855708 -8.015829 -4.179936 26.363468 13.633944 15.368643 52.680359 -43.543526 -12.075101 78.604218 -5.553678 -1.077038 10.631180 7.976597 -4.249249 -18.089945 35.205532 42.604473 73.903824 40.877411 -34.333054 22.135094 27.531652 -21.561392 -17.874050 -36.173946 -42.149986 72.278641 -40.423737 34.981457 23.081619 -26.032946 22.017254 
-18.001394 9.997749 6.995714 60.996773 0.000000 -180.000000 -15.299880 -2.212727 -0.489983 34.816700 -1.296674 0.859800 3.271051 0.000000 0.000000 0.397497 0.000000 0.000000 -26.718794 -14.203440 14.862020 -52.215374 43.331844 -11.793549 -78.608582 5.551011 -1.079043 -10.352998 -8.251873 -4.584498 26.963917 13.263055 15.145757 53.062019 -43.651505 -12.301210 78.604218 -5.553678 -1.077038 10.108360 8.208218 -4.660366 -18.143360 34.248596 40.498859 73.924232 40.225372 -32.331600 21.975487 26.569696 -22.401583 -17.924032 -35.209373 -40.114731 72.313766 -39.860142 33.182224 22.969732 -25.280807 22.936602 
-18.001394 9.997749 6.995714 60.996773 0.000000 -180.000000 -15.761107 -2.212714 -0.489959 36.044407 -1.296636 0.859848 2.194515 0.000000 0.000000 -0.492346 0.000000 0.000000 -27.298592 -13.907267 14.613620 -52.524338 43.414795 -11.975305 -78.608582 5.551011 -1.079043 -9.848487 -8.484307 -4.991242 27.561735 12.890072 14.927293 53.444912 -43.758381 -12.528692 78.604218 -5.553678 -1.077038 9.583759 8.436028 -5.073693 -18.154127 33.294910 38.426823 73.914978 39.575588 -30.356678 21.801825 25.611347 -23.236620 -17.932016 -34.247997 -38.112465 72.325745 -39.297642 31.403210 22.845440 -24.531332 23.850824 
-18.001394 9.997749 6.995714 60.996773 0.000000 -180.000000 -15.361384 -2.212725 -0.489980 34.980492 -1.296669 0.859807 1.116349 0.000000 0.000000 -1.382672 0.000000 0.000000 -26.796232 -14.164086 14.828701 -52.256531 43.342953 -11.817735 -78.608597 5.551011 -1.079043 -10.285832 -8.283073 -4.638607 27.043783 13.213445 15.116375 53.113003 -43.665825 -12.331460 78.604218 -5.553678 -1.077038 10.038514 8.238814 -4.715350 -18.147217 34.121204 40.220665 73.924675 40.138565 -32.066734 21.953131 26.441694 -22.513208 -17.927479 -35.080963 -39.845879 72.316681 -39.785057 32.943844 22.953873 -25.180716 23.058792 
